<svg width="44" height="23" viewBox="0 0 44 23" fill="none" xmlns="http://www.w3.org/2000/svg">
<path d="M16.2155 14.8176C16.2155 19.2953 12.5855 22.9253 8.10773 22.9253C3.62995 22.9253 0 19.2953 0 14.8176C0 10.3398 3.62995 6.70984 8.10773 6.70984C12.5855 6.70984 16.2155 10.3398 16.2155 14.8176ZM5.33165 14.8176C5.33165 16.3508 6.57454 17.5937 8.10773 17.5937C9.64091 17.5937 10.8838 16.3508 10.8838 14.8176C10.8838 13.2844 9.64091 12.0415 8.10773 12.0415C6.57454 12.0415 5.33165 13.2844 5.33165 14.8176Z" fill="#34967C"/>
<path d="M11.1831 6.70984H16.7746V22.9253H11.1831V6.70984Z" fill="#34967C"/>
<path d="M19.5704 2.79577L25.1619 0V22.9253H19.5704V2.79577Z" fill="#34967C"/>
<path d="M39.9531 3.34342C40.1757 3.12939 40.5297 3.13635 40.7437 3.35897L43.8439 6.5836C44.058 6.80622 44.051 7.16018 43.8284 7.37421L31.4049 19.3184C31.1823 19.5325 30.8283 19.5255 30.6143 19.3029L27.5141 16.0783C27.3 15.8556 27.307 15.5017 27.5296 15.2876L39.9531 3.34342Z" fill="#34967C"/>
<path d="M43.7445 15.4559C43.9626 15.6745 43.9622 16.0285 43.7436 16.2466L40.5771 19.4063C40.3585 19.6244 40.0045 19.624 39.7864 19.4054L27.6134 7.206C27.3953 6.9874 27.3956 6.63337 27.6142 6.41524L30.7807 3.25562C30.9993 3.03749 31.3533 3.03787 31.5715 3.25647L43.7445 15.4559Z" fill="#34967C"/>
</svg>
